<svg width="106" height="24" viewBox="0 0 106 24" fill="none" xmlns="http://www.w3.org/2000/svg">
<g clip-path="url(#clip0_480_6660)">
<path d="M33.1022 3.70966C32.9081 2.99257 32.5293 2.33884 32.0037 1.81357C31.478 1.2883 30.8238 0.90983 30.1063 0.715862C27.4792 0 16.9074 0 16.9074 0C16.9074 0 6.33513 0.0217241 3.70853 0.737586C2.991 0.931586 2.33686 1.31007 1.81125 1.83533C1.28564 2.3606 0.906911 3.01432 0.712786 3.73138C-0.0818001 8.39586 -0.39007 15.503 0.734524 19.9806C0.92865 20.6977 1.30738 21.3514 1.83299 21.8767C2.3586 22.4019 3.01274 22.7804 3.73027 22.9744C6.35708 23.6903 16.9291 23.6903 16.9291 23.6903C16.9291 23.6903 27.5012 23.6903 30.128 22.9744C30.8455 22.7804 31.4997 22.4019 32.0253 21.8767C32.5509 21.3514 32.9296 20.6977 33.1237 19.9806C33.9616 15.3097 34.22 8.20697 33.102 3.70986" fill="#FF0000"/>
<path d="M13.5425 16.9216L22.3127 11.8452L13.5425 6.76855V16.9216Z" fill="white"/>
<path d="M101.701 6.87745C102.852 6.87745 103.72 7.09428 104.328 7.50642C104.936 7.91869 105.37 8.56959 105.631 9.45911C105.891 10.3486 105.999 11.5632 105.999 13.1253V15.6637H100.42V16.4446L100.507 18.5923C100.572 19.0697 100.681 19.4168 100.855 19.6337C101.028 19.8507 101.31 19.9591 101.68 19.9591C102.179 19.9591 102.526 19.764 102.7 19.3736C102.895 18.983 102.982 18.3321 103.004 17.4426L105.891 17.6162C105.913 17.7463 105.913 17.9199 105.913 18.1368C105.913 19.5035 105.544 20.5233 104.784 21.1957C104.024 21.8681 102.982 22.2153 101.614 22.2153C99.9645 22.2153 98.814 21.6948 98.1627 20.6752C97.5116 19.6554 97.1642 18.0499 97.1642 15.9023V13.2772C97.2379 9.58924 97.887 6.88821 101.701 6.87745ZM61.5621 7.15945V18.0283C61.5621 18.6792 61.6271 19.1566 61.7791 19.4386C62.0873 20.0417 62.8863 19.8875 63.3204 19.5904C63.571 19.421 63.773 19.1893 63.9065 18.918V7.15924H67.2279V21.9766H64.6228L64.3407 20.1542H64.2756C63.5593 21.521 62.4954 22.2151 61.0845 22.2151C58.9127 22.2097 58.3813 20.646 58.2548 19.0579L58.2465 18.9459C58.2308 18.7054 58.2216 18.4645 58.2189 18.2234V7.15945H61.5621ZM78.6902 7.15945V18.0283C78.6902 18.6792 78.7552 19.1566 78.9072 19.4386C79.2156 20.0417 80.0144 19.8875 80.4485 19.5904C80.6991 19.421 80.9011 19.1893 81.0346 18.918V7.15924H84.356V21.9766H81.7509L81.4688 20.1542H81.4038C80.6874 21.521 79.6235 22.2151 78.2126 22.2151C76.0408 22.2097 75.5094 20.646 75.3829 19.0579L75.3746 18.9459C75.3589 18.7054 75.3498 18.4645 75.3471 18.2234V7.15945H78.6902ZM51.9233 6.87745C53.0088 6.87745 53.8988 7.09428 54.5501 7.54986C55.2013 8.00545 55.7006 8.69979 56.0045 9.65421C56.3085 10.6088 56.4604 11.8887 56.4604 13.4725V15.6201C56.4604 17.2039 56.3085 18.4622 56.0045 19.4166C55.7006 20.3714 55.223 21.0656 54.5501 21.5212C53.8773 21.955 52.9653 22.1936 51.8366 22.1936C50.6642 22.2153 49.7524 21.9768 49.0795 21.5429C48.4067 21.0873 47.9289 20.393 47.6469 19.4386C47.3645 18.4839 47.2343 17.2256 47.2343 15.642V13.494C47.2343 11.9102 47.3862 10.6086 47.7119 9.654C48.0376 8.67786 48.5367 7.98352 49.2315 7.54986C49.9261 7.1158 50.8161 6.87724 51.9233 6.87724M89.5662 0.933105V8.74304H89.5879C89.8918 8.17904 90.2825 7.72345 90.8253 7.37628C91.3323 7.03584 91.9294 6.85457 92.5402 6.85573C93.3434 6.85573 93.9513 7.07255 94.4072 7.48469C94.8631 7.91876 95.1887 8.59117 95.384 9.52407C95.5734 10.4278 95.681 11.6777 95.6877 13.2538L95.6879 13.4075V15.7504C95.6879 17.9414 95.4057 19.5687 94.8846 20.61C94.3422 21.6513 93.5171 22.1721 92.3882 22.1721C91.7588 22.1721 91.1943 22.0202 90.6734 21.7382C90.2127 21.4697 89.8308 21.085 89.5658 20.6226L89.5227 20.5448H89.4577L89.1103 21.955H86.3532V0.933312L89.5662 0.933105ZM76.2804 1.69242V4.38228H72.9807V21.9766H69.7245V4.38248H66.4031V1.69262L76.2804 1.69242ZM40.4828 1.69242L40.4849 1.70069C40.5165 1.84159 40.9554 3.79159 41.4382 6.06352L41.4763 6.24352L41.5339 6.51559L41.5724 6.69828L41.5916 6.78993L41.6301 6.97366L41.6494 7.06573L41.6877 7.25007L41.7436 7.51966C42.0697 9.0929 42.3808 10.6707 42.567 11.802H42.6539C42.8322 10.7872 43.0912 9.48848 43.3673 8.16248L43.4398 7.81614C43.4761 7.64262 43.5127 7.46938 43.5495 7.29642L43.6063 7.02807C43.9813 5.27086 44.3676 3.51607 44.765 1.7638L44.7712 1.73586L44.7812 1.69242H48.1026L44.2601 15.3817V21.955H40.9821V15.4032H40.9604L37.1614 1.69221L40.4828 1.69242ZM51.8581 9.1769C51.4022 9.1769 51.0983 9.41566 50.9031 9.91469C50.7078 10.4137 50.6209 11.1728 50.6209 12.2361V16.8569C50.6209 17.9417 50.7076 18.7442 50.8813 19.2217C51.0551 19.699 51.3807 19.9376 51.8581 19.9376C52.314 19.9376 52.6397 19.699 52.8351 19.2217C53.0305 18.7442 53.1173 17.9417 53.1173 16.8569V12.2359C53.1173 11.1728 53.0303 10.3918 52.8351 9.91448C52.6397 9.41566 52.314 9.1769 51.8581 9.1769ZM90.1523 9.61097C89.8877 9.85511 89.6995 10.1561 89.5875 10.5325L89.5662 10.6088V19.0262C89.8353 19.4818 90.2175 19.7855 90.8903 19.8072C91.2376 19.8072 91.5199 19.6771 91.7371 19.4168C91.9541 19.1566 92.106 18.7226 92.1928 18.115C92.2763 17.532 92.3197 16.729 92.323 15.7059V13.6461C92.323 12.4746 92.2795 11.5852 92.2145 10.956C92.1276 10.3268 92.0193 9.87124 91.8238 9.61097C91.446 9.06848 90.6299 9.07511 90.1523 9.61097ZM101.636 9.11193C101.267 9.13359 101.007 9.24207 100.855 9.43738C100.681 9.65421 100.572 9.97966 100.507 10.457C100.443 10.9246 100.421 12.559 100.42 12.6244V13.6895H102.852V12.7502V12.7682C102.85 13.0966 102.843 12.5777 102.829 11.9406L102.827 11.855C102.813 11.2951 102.793 10.6709 102.765 10.457C102.7 9.95793 102.591 9.61076 102.418 9.41566C102.244 9.22035 101.983 9.11193 101.636 9.11193" fill="#282828"/>
</g>
<defs>
<clipPath id="clip0_480_6660">
<rect width="106" height="24" fill="white"/>
</clipPath>
</defs>
</svg>
